<?xml version="1.0" standalone="no"?>
<!DOCTYPE svg PUBLIC "-//W3C//DTD SVG 20010904//EN"
 "http://www.w3.org/TR/2001/REC-SVG-20010904/DTD/svg10.dtd">
<svg version="1.0" xmlns="http://www.w3.org/2000/svg"
 width="1381.000000pt" height="1381.000000pt" viewBox="0 0 1381.000000 1381.000000"
 preserveAspectRatio="xMidYMid meet">
<metadata>
Created by potrace 1.14, written by Peter Selinger 2001-2017
</metadata>
<g transform="translate(0.000000,1381.000000) scale(0.100000,-0.100000)"
fill="#000000" stroke="none">
<path d="M6876 9859 c-32 -21 -60 -39 -62 -39 -3 0 -37 -22 -77 -49 -39 -27
-155 -103 -257 -168 -102 -66 -230 -149 -285 -185 -55 -36 -172 -111 -260
-168 -191 -123 -302 -195 -410 -265 -44 -29 -134 -87 -200 -130 -66 -42 -141
-91 -167 -109 l-47 -31 -1 -972 0 -971 138 -88 c75 -49 142 -92 147 -97 6 -4
67 -45 138 -90 70 -45 412 -267 760 -494 l634 -412 651 392 c359 216 660 397
670 402 75 43 188 110 192 115 3 3 25 16 50 29 25 14 56 32 70 41 14 10 49 32
78 50 l52 32 -97 50 c-54 27 -165 85 -248 127 -82 43 -214 111 -291 151 l-142
73 -393 -246 c-217 -135 -398 -250 -404 -254 -5 -5 -27 -19 -48 -31 l-38 -22
-322 222 c-177 122 -324 225 -327 228 -3 3 -32 23 -64 44 -33 21 -64 43 -70
47 -6 5 -63 45 -126 88 -63 44 -131 91 -152 105 l-36 26 -1 483 -1 482 123 83
c67 46 217 148 332 227 116 79 264 180 330 225 66 45 165 113 221 151 l100 70
420 -266 c230 -146 429 -270 440 -276 22 -11 15 -15 767 368 15 8 27 18 27 21
-1 4 -109 72 -241 152 -132 80 -293 178 -357 217 -64 40 -124 76 -132 80 -16
7 -150 89 -210 128 -19 12 -57 35 -84 51 -26 16 -56 34 -65 39 -9 6 -52 32
-96 58 -44 26 -145 88 -225 137 -149 91 -289 176 -325 197 -18 10 -29 6 -79
-28z"/>
<path d="M2246 5209 c-85 -23 -165 -109 -167 -178 -1 -20 -1 -113 -1 -207 0
-193 9 -225 77 -282 61 -50 81 -52 517 -52 l405 0 0 85 0 85 -36 1 c-20 0
-169 1 -331 1 -325 0 -345 3 -378 58 -15 23 -20 53 -21 120 -2 100 11 145 54
178 27 22 34 22 370 22 l343 0 0 73 c0 39 -2 79 -4 87 -3 13 -56 15 -404 15
-220 0 -411 -3 -424 -6z"/>
<path d="M3205 5210 c-2 -3 17 -28 43 -56 49 -52 194 -211 278 -303 l49 -54 1
-136 c1 -75 2 -144 3 -153 1 -16 14 -18 116 -18 l115 0 1 38 c0 20 1 88 1 150
l-1 113 46 52 c26 29 92 101 147 161 56 60 120 130 144 155 23 25 42 48 42 51
0 3 -52 6 -115 5 l-115 -1 -43 -44 c-23 -25 -82 -89 -131 -143 l-90 -98 -80
87 c-45 48 -104 112 -133 143 l-52 56 -111 0 c-61 0 -113 -2 -115 -5z"/>
<path d="M4407 5199 c-55 -19 -113 -69 -133 -116 -10 -24 -14 -85 -14 -233 0
-225 7 -254 73 -304 73 -56 73 -56 516 -56 l409 0 0 85 c-1 84 -2 85 -27 86
-14 0 -163 1 -330 0 -331 0 -354 3 -387 54 -14 21 -18 50 -19 124 -2 108 9
147 50 179 27 22 34 22 370 22 l343 0 -2 87 -1 88 -400 0 c-344 0 -407 -2
-448 -16z"/>
<path d="M5383 5206 c-5 -7 -8 -571 -4 -688 l1 -28 498 0 497 0 0 85 c0 84 0
85 -25 86 -14 0 -185 1 -381 1 l-357 0 0 237 c0 130 -1 254 -1 276 l-1 40
-111 0 c-61 0 -113 -4 -116 -9z"/>
<path d="M6677 5203 c-53 -16 -112 -64 -136 -111 -16 -32 -19 -62 -19 -227 0
-104 4 -207 9 -227 12 -46 67 -104 122 -128 38 -17 73 -19 355 -20 190 0 328
4 352 10 52 14 121 68 142 110 14 29 17 68 18 238 0 220 -4 242 -56 296 -15
16 -48 38 -73 49 -43 20 -64 21 -359 22 -220 0 -326 -3 -355 -12z m558 -185
c41 -32 52 -71 50 -179 -1 -81 -4 -100 -23 -126 -12 -17 -37 -36 -55 -42 -34
-10 -273 -14 -342 -5 -86 10 -112 63 -108 218 1 60 6 86 21 105 34 47 55 51
248 51 171 0 183 -1 209 -22z"/>
<path d="M7669 5170 c0 -53 0 -661 0 -672 1 -5 53 -8 116 -8 l115 0 1 38 c1
20 1 64 2 98 l0 61 293 0 293 0 56 27 c57 29 95 69 112 121 5 17 9 75 8 130
-2 111 -14 145 -66 189 -70 59 -67 59 -516 60 l-413 1 -1 -45z m741 -160 c36
-46 23 -111 -26 -135 -28 -13 -71 -15 -257 -15 l-224 1 -1 90 0 90 244 -3 245
-3 19 -25z"/>
<path d="M9040 5205 c-11 -14 -420 -707 -420 -712 0 -2 62 -2 137 -1 l138 3
130 222 c71 123 133 223 137 223 4 0 35 -48 70 -107 35 -60 95 -161 133 -225
l70 -118 132 0 c103 0 133 3 133 13 0 7 -4 17 -9 23 -5 5 -46 72 -91 149 -46
77 -90 152 -99 167 -9 14 -43 73 -76 130 -33 57 -79 134 -102 173 l-43 70
-116 0 c-67 0 -119 -4 -124 -10z"/>
<path d="M9635 5210 c-2 -3 -3 -42 -3 -88 l0 -82 188 0 c141 0 189 -3 192 -12
2 -7 4 -131 4 -275 l-1 -263 117 0 118 0 0 275 0 275 190 0 190 0 0 88 0 87
-496 0 c-273 0 -497 -2 -499 -5z"/>
<path d="M10724 5205 c-1 -5 -2 -167 -1 -360 l2 -350 116 -3 117 -3 -2 141
c-1 118 1 140 14 141 22 1 482 1 500 0 13 -1 15 -23 15 -138 l0 -138 118 -3
117 -3 0 363 0 363 -115 0 c-71 0 -116 -3 -116 -10 -1 -5 -2 -68 -3 -140 l-1
-130 -262 -1 c-260 -1 -263 -1 -264 20 0 12 -1 66 0 121 0 153 11 141 -120
140 -66 0 -113 -4 -115 -10z"/>
<path d="M2088 4202 c-15 -3 -18 -14 -18 -58 0 -52 -1 -54 -27 -55 -27 -1
-158 -1 -179 0 -6 1 -10 23 -9 56 l2 55 -48 0 -49 0 0 -145 0 -145 48 0 49 0
-3 48 c-1 26 2 52 7 58 5 6 48 10 106 9 l98 -2 2 -29 c0 -16 2 -42 2 -57 1
-27 3 -28 47 -25 l46 3 2 142 1 141 -30 4 c-16 2 -38 2 -47 0z"/>
<path d="M2208 4202 c-16 -3 -18 -18 -18 -148 l0 -145 47 3 48 3 0 142 1 141
-31 4 c-16 2 -38 2 -47 0z"/>
<path d="M2343 4202 c-30 -3 -33 -6 -33 -37 l0 -34 70 1 c39 0 74 -3 78 -6 4
-4 7 -53 7 -109 l0 -102 48 -3 47 -3 0 113 0 113 74 -2 74 -2 4 30 c3 19 0 33
-8 36 -15 5 -313 10 -361 5z"/>
<path d="M2825 4202 c-16 -2 -41 -12 -55 -22 -23 -17 -25 -26 -28 -113 -4 -88
-2 -96 21 -123 l25 -29 175 -3 c162 -3 175 -2 179 15 2 10 2 26 0 36 -3 15
-18 17 -142 17 -129 0 -140 1 -153 21 -18 25 -14 109 5 121 16 9 33 10 174 10
110 0 112 0 116 23 9 44 -2 47 -148 49 -77 0 -152 0 -169 -2z"/>
<path d="M3173 4197 c-3 -5 -5 -70 -6 -145 l0 -137 46 -3 c51 -3 49 -6 49 68
l-1 45 102 -1 c56 -1 105 -2 108 -3 4 0 6 -25 5 -53 l-1 -53 48 -3 47 -3 0
148 0 148 -49 -3 -48 -4 2 -54 c3 -45 0 -54 -13 -55 -37 -1 -149 -1 -173 0
-24 1 -27 5 -27 44 0 23 -1 47 -1 53 -1 14 -80 24 -88 11z"/>
<path d="M3933 4202 l-31 -3 3 -55 c3 -45 1 -54 -13 -55 -9 0 -57 -1 -107 -1
-100 0 -91 -8 -94 80 -1 31 -2 32 -46 32 -25 0 -45 -3 -46 -7 -1 -11 -1 -244
0 -265 1 -14 10 -18 46 -18 l44 0 3 57 3 58 95 1 c52 0 100 -1 106 -3 5 -2 10
-28 9 -58 l-1 -55 48 0 48 0 0 144 c0 159 2 155 -67 148z"/>
<path d="M4055 4202 l-30 -3 2 -122 c1 -67 2 -132 3 -144 0 -20 5 -23 45 -23
25 0 45 3 46 8 3 40 3 266 -1 271 -8 12 -33 17 -65 13z"/>
<path d="M4155 4199 c-4 -6 -8 -178 -6 -262 1 -27 3 -28 49 -25 l47 3 -3 42
c-2 42 6 53 64 86 6 3 36 -25 67 -62 l57 -69 55 0 c30 1 55 3 55 5 0 3 -31 45
-70 94 -38 48 -70 90 -70 92 0 2 32 24 70 48 39 24 70 46 70 49 0 3 -27 4 -59
3 -53 -1 -68 -7 -145 -57 -48 -31 -88 -56 -90 -56 -2 0 -3 23 -2 51 1 28 -2
53 -6 55 -13 8 -79 11 -83 3z"/>
<path d="M4615 4200 c-38 -5 -41 -7 -40 -35 l0 -30 201 -1 200 -2 2 34 c2 29
-1 34 -20 35 -142 3 -311 3 -343 -1z"/>
<path d="M5040 4200 l-35 -5 0 -140 0 -140 48 -3 47 -3 0 40 c0 38 2 40 33 43
17 2 50 1 72 0 34 -3 44 -10 65 -43 23 -38 25 -39 83 -39 l59 0 -30 41 -31 41
26 22 c20 17 26 34 29 73 4 43 0 56 -21 82 l-26 30 -142 3 c-78 2 -158 1 -177
-2z m243 -69 c23 -1 27 -5 27 -30 0 -37 -12 -41 -121 -41 l-89 0 0 34 c0 19 4
36 10 38 9 3 58 2 173 -1z"/>
<path d="M5638 4200 c-145 -5 -158 -7 -180 -27 -17 -16 -24 -33 -23 -57 0 -38
34 -85 62 -87 10 -1 66 -2 125 -3 59 -1 110 -5 114 -8 3 -4 4 -14 1 -23 -5
-13 -30 -15 -156 -15 l-150 0 1 -35 1 -35 164 0 c202 0 225 9 239 89 5 25 -24
68 -53 79 -15 6 -71 10 -123 10 -134 0 -130 0 -130 22 0 23 -8 22 168 22 72 0
133 4 133 9 1 5 2 16 2 24 0 34 -4 41 -20 40 -10 0 -89 -2 -175 -5z"/>
<path d="M6209 4199 c-55 -12 -71 -38 -74 -120 -7 -158 9 -169 238 -169 l165
0 -2 63 -1 62 -45 0 c-42 0 -45 -2 -48 -28 l-3 -27 -89 0 c-67 0 -92 4 -104
16 -21 21 -22 107 -1 124 11 9 58 13 153 14 l137 1 3 33 c3 29 1 32 -25 33
-156 4 -278 3 -304 -2z"/>
<path d="M6598 4202 l-37 -3 1 -116 c2 -105 4 -119 24 -142 22 -26 23 -26 201
-29 l178 -3 0 143 0 143 -30 5 c-63 12 -65 9 -65 -111 l0 -109 -88 0 c-121 0
-123 2 -124 122 0 105 0 105 -60 100z"/>
<path d="M7628 4202 l-88 -3 0 -32 0 -33 200 -1 c110 0 200 2 201 6 5 31 5 61
0 62 -28 2 -244 3 -313 1z"/>
<path d="M8277 4202 c-36 -3 -38 -5 -34 -35 3 -31 4 -32 58 -34 30 -1 63 -2
75 -2 20 -1 21 -6 22 -98 0 -54 1 -104 1 -111 1 -9 15 -12 48 -10 l47 3 -3
108 c-2 97 -1 107 16 108 10 0 45 1 77 2 l59 2 3 33 c1 19 -2 32 -9 33 -64 2
-331 3 -360 1z"/>
<path d="M8755 4199 c-24 -4 -48 -17 -61 -33 -20 -23 -23 -35 -21 -116 2 -78
5 -92 25 -112 21 -22 31 -23 168 -25 200 -3 212 7 209 156 -2 78 -4 87 -29
108 -22 19 -39 23 -92 24 -35 0 -86 2 -113 2 -26 1 -65 -1 -86 -4z m211 -80
c20 -16 18 -103 -2 -123 -19 -20 -163 -23 -182 -4 -13 13 -16 106 -4 125 14
21 162 23 188 2z"/>
<path d="M9565 4200 l-70 -5 0 -140 0 -140 48 -3 47 -3 0 110 c0 127 -13 114
114 113 94 -1 99 -7 98 -126 l0 -96 48 0 48 0 0 108 c0 119 -8 153 -42 171
-24 13 -178 19 -291 11z"/>
<path d="M9957 4202 c-36 -3 -38 -5 -34 -35 l3 -32 199 0 198 0 3 33 c1 19 -2
32 -9 32 -70 3 -331 4 -360 2z"/>
<path d="M10434 4199 c-64 -11 -82 -42 -82 -142 0 -73 3 -88 23 -113 l23 -29
137 -3 c204 -5 223 8 220 157 -1 78 -3 85 -28 107 -16 13 -36 24 -45 24 -149
4 -216 4 -248 -1z m212 -80 c20 -16 18 -103 -2 -123 -11 -12 -35 -16 -88 -16
-92 0 -108 11 -108 74 0 71 15 81 107 79 42 -1 83 -7 91 -14z"/>
<path d="M11382 4202 l-173 -2 3 -33 3 -32 198 -1 197 -1 0 33 c0 19 -3 34 -7
35 -33 3 -69 4 -221 1z"/>
<path d="M11721 4199 c-48 -6 -80 -35 -82 -73 -12 -208 -2 -216 240 -216 l161
0 0 35 0 35 -137 0 c-76 0 -145 4 -152 9 -19 12 -24 103 -7 127 11 15 32 17
152 18 l139 1 3 33 c3 25 -1 32 -15 33 -100 4 -267 3 -302 -2z"/>
<path d="M6991 4055 l0 -145 48 0 48 0 1 145 2 145 -49 0 -49 0 -1 -145z"/>
<path d="M7112 4055 l0 -145 164 0 c233 0 242 6 239 158 -2 79 -4 87 -29 109
-26 22 -34 23 -201 23 l-174 0 1 -145z m295 64 c8 -7 13 -33 13 -65 0 -68 -11
-74 -124 -74 l-86 0 -1 38 c0 20 -1 54 -2 74 -2 30 2 38 18 40 44 6 169 -3
182 -13z"/>
<path d="M9371 4055 l-1 -145 48 0 49 0 2 145 2 145 -50 0 -49 0 -1 -145z"/>
<path d="M10819 4187 c-47 -36 -48 -114 -2 -144 20 -13 50 -17 139 -18 71 0
117 -4 125 -12 26 -26 -4 -33 -152 -33 l-149 0 0 -35 0 -35 166 0 c186 0 218
9 233 65 10 39 4 58 -26 87 -23 21 -34 23 -145 25 -88 1 -123 5 -129 15 -16
26 12 31 155 31 140 -1 144 0 148 21 9 45 5 46 -175 46 -119 -1 -177 -4 -188
-13z"/>
<path d="M4576 4082 c-2 -4 -3 -18 -1 -32 l2 -25 184 0 c101 -1 192 1 202 3
11 3 17 14 17 32 l0 27 -200 0 c-110 1 -202 -2 -204 -5z"/>
<path d="M7543 4074 c-2 -7 -3 -21 -1 -31 3 -17 18 -18 196 -18 203 0 220 3
208 43 -6 18 -18 19 -202 19 -151 0 -197 -3 -201 -13z"/>
<path d="M9922 3999 l-1 -89 50 0 49 0 -2 48 c-1 26 0 52 4 57 4 7 60 10 148
10 146 -1 161 3 156 40 -3 19 -12 20 -203 22 l-200 1 -1 -89z"/>
<path d="M11210 4056 l0 -31 200 0 200 0 0 31 0 31 -200 0 -200 1 0 -32z"/>
<path d="M4574 3948 l1 -33 200 0 200 0 3 33 3 32 -204 0 -204 0 1 -32z"/>
<path d="M7542 3945 l1 -35 201 0 201 0 1 35 1 35 -203 0 -203 0 1 -35z"/>
<path d="M11210 3945 l0 -35 199 0 c211 0 212 0 203 47 l-4 23 -199 0 -199 0
0 -35z"/>
</g>
</svg>
